HIERARCHY
ROOT Hips
{
  OFFSET 51.7975 94.2089 14.8721
  CHANNELS 6 Xposition Yposition Zposition Zrotation Xrotation Yrotation
  JOINT spine
  {
    OFFSET 0 7.80058 0.448573
    CHANNELS 3 Zrotation Xrotation Yrotation
    JOINT spine1
    {
      OFFSET 0 10.1364 0
      CHANNELS 3 Zrotation Xrotation Yrotation
      JOINT spine2
      {
        OFFSET 0 9.71251 0
        CHANNELS 3 Zrotation Xrotation Yrotation
        JOINT Neck
        {
          OFFSET 0 24.9361 1.18887
          CHANNELS 3 Zrotation Xrotation Yrotation
          JOINT Head
          {
            OFFSET 0 7.53384 0
            CHANNELS 3 Zrotation Xrotation Yrotation
            End Site
            {
              OFFSET 0 18.2361 -6.01402
            }
          }
        }
        JOINT RightShoulder
        {
          OFFSET -4.08965 10.4888 -0.569457
          CHANNELS 3 Zrotation Xrotation Yrotation
          JOINT RightArm
          {
            OFFSET 0 13.757 0
            CHANNELS 3 Zrotation Xrotation Yrotation
            JOINT RightArmRoll
            {
              OFFSET 0 6.94478 0
              CHANNELS 3 Zrotation Xrotation Yrotation
              JOINT RightForeArm
              {
                OFFSET 0 20.2277 0
                CHANNELS 3 Zrotation Xrotation Yrotation
                JOINT RightForeArmRoll
                {
                  OFFSET 0 7.79312 0
                  CHANNELS 3 Zrotation Xrotation Yrotation
                  JOINT RightHand
                  {
                    OFFSET 0 15.6391 0
                    CHANNELS 3 Zrotation Xrotation Yrotation
                    End Site
                    {
                      OFFSET 0 0 0
                    }
                  }
                }
              }
            }
          }
        }
        JOINT LeftShoulder
        {
          OFFSET 4.08965 10.4888 -0.569457
          CHANNELS 3 Zrotation Xrotation Yrotation
          JOINT LeftArm
          {
            OFFSET 0 13.757 0
            CHANNELS 3 Zrotation Xrotation Yrotation
            JOINT LeftArmRoll
            {
              OFFSET 0 6.94478 0
              CHANNELS 3 Zrotation Xrotation Yrotation
              JOINT LeftForeArm
              {
                OFFSET 0 20.2277 0
                CHANNELS 3 Zrotation Xrotation Yrotation
                JOINT LeftForeArmRoll
                {
                  OFFSET 0 7.79312 0
                  CHANNELS 3 Zrotation Xrotation Yrotation
                  JOINT LeftHand
                  {
                    OFFSET 0 15.6391 0
                    CHANNELS 3 Zrotation Xrotation Yrotation
                    End Site
                    {
                      OFFSET 0 0 0
                    }
                  }
                }
              }
            }
          }
        }
      }
    }
  }
  JOINT RightUpLeg
  {
    OFFSET -6.91415 -1.26787 -1.06358
    CHANNELS 3 Zrotation Xrotation Yrotation
    JOINT RightUpLegRoll
    {
      OFFSET 0 18.3378 0
      CHANNELS 3 Zrotation Xrotation Yrotation
      JOINT RightLeg
      {
        OFFSET 0 -22.7085 0
        CHANNELS 3 Zrotation Xrotation Yrotation
        JOINT RightLegRoll
        {
          OFFSET 0 22.7828 0
          CHANNELS 3 Zrotation Xrotation Yrotation
          JOINT RightFoot
          {
            OFFSET 0 18.9629 0
            CHANNELS 3 Zrotation Xrotation Yrotation
            JOINT RightToeBase
            {
              OFFSET 0 15.852 0
              CHANNELS 3 Zrotation Xrotation Yrotation
              End Site
              {
                OFFSET 0.00671906 7.67701 -0.884892
              }
            }
          }
        }
      }
    }
  }
  JOINT LeftUpLeg
  {
    OFFSET 6.91415 -1.26787 -1.06358
    CHANNELS 3 Zrotation Xrotation Yrotation
    JOINT LeftUpLegRoll
    {
      OFFSET 0 18.3379 0
      CHANNELS 3 Zrotation Xrotation Yrotation
      JOINT LeftLeg
      {
        OFFSET 0 22.7084 0
        CHANNELS 3 Zrotation Xrotation Yrotation
        JOINT LeftLegRoll
        {
          OFFSET 0 22.9934 0
          CHANNELS 3 Zrotation Xrotation Yrotation
          JOINT LeftFoot
          {
            OFFSET 0 18.7522 0
            CHANNELS 3 Zrotation Xrotation Yrotation
            JOINT LeftToeBase
            {
              OFFSET 0 15.852 0
              CHANNELS 3 Zrotation Xrotation Yrotation
              End Site
              {
                OFFSET -0.030112 7.677 -0.884893
              }
            }
          }
        }
      }
    }
  }
}
MOTION
Frames: 6
Frame Time: 0.00208333
50.7223 93.9538 13.9563 -1.11898 -7.34297 -1.26774 0.122288 -0.260571 0.0428334 0.245501 3.48176 0.0702671 0.24499 5.12682 0.0662141 -1.20493 20.3035 -0.312525 0.859712 -15.8722 -0.488979 75.8724 -4.94123 -4.09097 86.7016 -7.29089 -60.3222 -1.3194e-005 -7.47215e-009 -1.0748e-006 -151.648 51.0685 108.758 -7.63248e-006 -2.26108e-006 -2.99999 8.02889 -4.9515 0.697741 -49.1658 -0.716944 -0.731906 -103.547 34.9663 16.3288 6.58889e-006 9.06506e-008 2.25581e-006 173.694 66.6814 -163.246 -4.07703e-006 -6.51866e-007 3.00001 -8.0294 -4.95145 -0.697672 -178.212 -2.88434 -1.98931 180 7.01526e-015 178.837 179.795 12.2634 179.378 5.43074e-006 -5.89438e-006 0.237596 -21.3794 71.0292 22.4481 8.137 25.2402 -3.48638 -179.279 -1.86151 5.61531 4.54188e-006 -4.6773e-006 -1.4711 -5.20168 -15.0227 -0.43859 -6.73014e-007 -9.71979e-006 -0.307896 26.7378 72.7978 -25.1228 -8.1365 25.2327 3.48774 
50.7128 93.9546 13.9505 -1.14875 -7.34234 -1.57866 0.116838 -0.262809 0.0349254 0.234559 3.47727 0.0551442 0.234215 5.12233 0.0512601 -0.778363 20.3332 -0.248542 0.288852 -15.8396 -0.423715 76.0175 -4.97518 -4.11342 86.2235 -7.4524 -60.4342 -1.3194e-005 -7.47213e-009 -1.0748e-006 -151.632 50.944 108.525 -7.63248e-006 -2.26108e-006 -2.99999 8.02889 -4.9515 0.697741 -48.9697 -0.578071 -0.86105 -103.474 35.4347 15.9494 6.58889e-006 9.06506e-008 2.25581e-006 173.796 67.1549 -163.651 -4.07703e-006 -6.51866e-007 3.00001 -8.0294 -4.95145 -0.697672 -178.239 -2.81872 -1.98522 180 7.01527e-015 178.838 179.801 12.3082 179.375 5.43074e-006 -5.89438e-006 0.236505 -21.3294 71.0056 22.4197 8.137 25.2402 -3.48638 -179.295 -1.92497 5.60831 4.54188e-006 -4.6773e-006 -1.47198 -5.22546 -14.9869 -0.441618 -6.73014e-007 -9.71979e-006 -0.30537 26.7201 72.794 -25.1146 -8.1365 25.2327 3.48774 
50.7169 93.9572 13.9726 -1.17859 -7.3417 -1.89049 0.111388 -0.264524 0.0272095 0.223593 3.47382 0.0404056 0.223411 5.11889 0.0366912 -0.354964 20.3553 -0.185123 -0.277293 -15.8003 -0.358616 76.1582 -5.00821 -4.1351 85.7554 -7.60858 -60.5349 -1.3194e-005 -7.47214e-009 -1.0748e-006 -151.621 50.8241 108.307 -7.63248e-006 -2.26108e-006 -2.99999 8.02889 -4.9515 0.697741 -48.7704 -0.444948 -0.986959 -103.408 35.9062 15.5675 6.58889e-006 9.06506e-008 2.25581e-006 173.9 67.6365 -164.059 -4.07703e-006 -6.51866e-007 3.00001 -8.0294 -4.95145 -0.697672 -178.267 -2.75311 -1.97948 180 7.01527e-015 178.84 179.805 12.3532 179.372 5.43074e-006 -5.89438e-006 0.235435 -21.2805 70.9816 22.3911 8.137 25.2402 -3.48638 -179.312 -1.98954 5.60134 4.54188e-006 -4.6773e-006 -1.47291 -5.24931 -14.9498 -0.444644 -6.73014e-007 -9.71979e-006 -0.302921 26.7043 72.7902 -25.1068 -8.1365 25.2327 3.48774 
50.711 93.9559 13.9566 -1.20916 -7.34129 -2.20318 0.106039 -0.265676 0.0196063 0.212816 3.4715 0.0258797 0.212793 5.11657 0.022332 0.0652849 20.3711 -0.121726 -0.83838 -15.7557 -0.293006 76.2956 -5.04011 -4.15601 85.2975 -7.75858 -60.6233 -1.3194e-005 -7.47214e-009 -1.0748e-006 -151.615 50.7095 108.105 -7.63248e-006 -2.26108e-006 -2.99999 8.02889 -4.9515 0.697741 -48.5667 -0.318724 -1.10883 -103.349 36.3797 15.1849 6.58889e-006 9.06506e-008 2.25581e-006 174.004 68.1281 -164.466 -4.07703e-006 -6.51866e-007 3.00001 -8.0294 -4.95145 -0.697672 -178.294 -2.68855 -1.97224 180 7.01527e-015 178.841 179.807 12.3966 179.37 5.43074e-006 -5.89438e-006 0.234347 -21.2323 70.9566 22.3614 8.137 25.2402 -3.48638 -179.328 -2.05543 5.59387 4.54188e-006 -4.6773e-006 -1.47388 -5.27322 -14.9115 -0.447675 -6.73014e-007 -9.71979e-006 -0.300573 26.6915 72.7868 -25.0999 -8.1365 25.2327 3.48774 
50.7114 93.9584 13.9717 -1.24117 -7.34137 -2.51669 0.100892 -0.266227 0.0120366 0.202437 3.47039 0.0113947 0.202575 5.11546 0.0080072 0.482398 20.3815 -0.057806 -1.39406 -15.707 -0.226205 76.4307 -5.07068 -4.17617 84.8495 -7.9016 -60.6981 -1.3194e-005 -7.47213e-009 -1.0748e-006 -151.615 50.6008 107.921 -7.63248e-006 -2.26108e-006 -2.99999 8.02889 -4.9515 0.697741 -48.3573 -0.200552 -1.22585 -103.301 36.8546 14.8035 6.58889e-006 9.06506e-008 2.25581e-006 174.107 68.6317 -164.872 -4.07703e-006 -6.51866e-007 3.00001 -8.0294 -4.95145 -0.697672 -178.321 -2.62611 -1.96365 180 7.01528e-015 178.842 179.806 12.4369 179.368 5.43074e-006 -5.89438e-006 0.233199 -21.1845 70.9297 22.33 8.137 25.2402 -3.48638 -179.343 -2.12282 5.58537 4.54188e-006 -4.6773e-006 -1.4749 -5.29717 -14.8722 -0.450723 -6.73014e-007 -9.71979e-006 -0.298353 26.6829 72.784 -25.0944 -8.1365 25.2327 3.48774 
50.7023 93.9635 13.9632 -1.27529 -7.34219 -2.83097 0.0960504 -0.266137 0.00442132 0.19267 3.47055 -0.00322083 0.19297 5.11562 -0.00645865 0.896385 20.3876 0.00718385 -1.94398 -15.6555 -0.157535 76.5646 -5.09972 -4.19557 84.4114 -8.0368 -60.758 -1.3194e-005 -7.47214e-009 -1.0748e-006 -151.619 50.4985 107.754 -7.63248e-006 -2.26108e-006 -2.99999 8.02889 -4.9515 0.697741 -48.1409 -0.0915808 -1.33721 -103.267 37.33 14.4254 6.58889e-006 9.06506e-008 2.25581e-006 174.205 69.1494 -165.273 -4.07703e-006 -6.51866e-007 3.00001 -8.0294 -4.95145 -0.697672 -178.347 -2.56681 -1.95389 180 7.01528e-015 178.844 179.802 12.4725 179.367 5.43074e-006 -5.89438e-006 0.231952 -21.1367 70.9002 22.296 8.137 25.2402 -3.48638 -179.356 -2.19192 5.57531 4.54188e-006 -4.6773e-006 -1.47597 -5.32116 -14.832 -0.453797 -6.73014e-007 -9.71979e-006 -0.296284 26.6797 72.7821 -25.0911 -8.1365 25.2327 3.48774 
